<svg xmlns="http://www.w3.org/2000/svg" xmlns:xlink="http://www.w3.org/1999/xlink" width="321" zoomAndPan="magnify" viewBox="0 0 240.75 56.999997" height="76" preserveAspectRatio="xMidYMid meet" version="1.0"><defs><g/><clipPath id="3f6ae18095"><path d="M 0.03125 17.335938 L 56.972656 17.335938 L 56.972656 39.8125 L 0.03125 39.8125 Z M 0.03125 17.335938 " clip-rule="nonzero"/></clipPath></defs><g clip-path="url(#3f6ae18095)"><path fill="#020227" d="M 28.554688 21.402344 C 27.878906 21.402344 27.328125 21.949219 27.328125 22.625 C 27.328125 23.300781 27.878906 23.851562 28.554688 23.851562 C 29.230469 23.851562 29.777344 23.300781 29.777344 22.625 C 29.777344 21.949219 29.230469 21.402344 28.554688 21.402344 Z M 56.433594 17.332031 L 43.558594 17.332031 C 43.21875 17.332031 42.945312 17.609375 42.945312 17.945312 C 42.945312 18.28125 43.21875 18.554688 43.558594 18.554688 L 49.382812 18.554688 L 49.382812 22.015625 L 38.785156 22.015625 C 37.832031 22.015625 37.054688 21.238281 37.054688 20.285156 C 37.054688 18.660156 35.730469 17.332031 34.101562 17.332031 L 23.261719 17.332031 C 21.632812 17.332031 20.308594 18.660156 20.308594 20.285156 C 20.308594 21.238281 19.53125 22.015625 18.578125 22.015625 L 7.722656 22.015625 L 7.722656 18.554688 L 13.546875 18.554688 C 13.886719 18.554688 14.160156 18.28125 14.160156 17.945312 C 14.160156 17.609375 13.886719 17.332031 13.546875 17.332031 L 0.671875 17.332031 C 0.335938 17.332031 0.0625 17.609375 0.0625 17.945312 C 0.0625 18.28125 0.335938 18.554688 0.671875 18.554688 L 6.5 18.554688 L 6.5 25.4375 C 6.5 25.777344 6.773438 26.050781 7.109375 26.050781 L 22.015625 26.050781 C 22.339844 26.050781 22.601562 26.3125 22.601562 26.632812 C 22.601562 26.917969 22.667969 27.1875 22.785156 27.425781 L 17.027344 38.574219 L 16.636719 38.574219 C 16.300781 38.574219 16.023438 38.847656 16.023438 39.1875 C 16.023438 39.523438 16.300781 39.796875 16.636719 39.796875 L 17.398438 39.796875 C 17.402344 39.796875 17.402344 39.796875 17.402344 39.796875 L 18.621094 39.796875 C 18.960938 39.796875 19.234375 39.523438 19.234375 39.1875 C 19.234375 38.847656 18.960938 38.574219 18.621094 38.574219 L 18.402344 38.574219 L 23.710938 28.300781 C 23.925781 28.390625 24.160156 28.441406 24.40625 28.441406 L 32.957031 28.441406 C 33.121094 28.441406 33.28125 28.417969 33.433594 28.375 L 38.703125 38.574219 L 38.484375 38.574219 C 38.144531 38.574219 37.871094 38.847656 37.871094 39.1875 C 37.871094 39.523438 38.144531 39.796875 38.484375 39.796875 L 39.703125 39.796875 C 39.707031 39.796875 39.707031 39.796875 39.707031 39.796875 C 39.707031 39.796875 39.707031 39.796875 39.710938 39.796875 L 40.46875 39.796875 C 40.808594 39.796875 41.082031 39.523438 41.082031 39.1875 C 41.082031 38.847656 40.808594 38.574219 40.46875 38.574219 L 40.078125 38.574219 L 34.441406 27.660156 C 34.644531 27.371094 34.761719 27.015625 34.761719 26.632812 C 34.761719 26.3125 35.023438 26.050781 35.347656 26.050781 L 49.996094 26.050781 C 50.332031 26.050781 50.605469 25.777344 50.605469 25.4375 L 50.605469 18.554688 L 56.433594 18.554688 C 56.769531 18.554688 57.042969 18.28125 57.042969 17.945312 C 57.042969 17.609375 56.769531 17.332031 56.433594 17.332031 Z M 28.554688 25.074219 C 27.203125 25.074219 26.105469 23.976562 26.105469 22.625 C 26.105469 21.277344 27.203125 20.179688 28.554688 20.179688 C 29.902344 20.179688 31 21.277344 31 22.625 C 31 23.976562 29.902344 25.074219 28.554688 25.074219 Z M 28.554688 25.074219 " fill-opacity="1" fill-rule="nonzero"/></g><g fill="#020227" fill-opacity="1"><g transform="translate(74.813853, 39.175401)"><g><path d="M 9.828125 0.3125 C 8.117188 0.3125 6.46875 0.0703125 4.875 -0.40625 C 3.289062 -0.894531 2.035156 -1.539062 1.109375 -2.34375 L 2.53125 -5.53125 C 3.4375 -4.8125 4.546875 -4.222656 5.859375 -3.765625 C 7.171875 -3.316406 8.492188 -3.09375 9.828125 -3.09375 C 11.460938 -3.09375 12.6875 -3.351562 13.5 -3.875 C 14.3125 -4.40625 14.71875 -5.101562 14.71875 -5.96875 C 14.71875 -6.601562 14.488281 -7.125 14.03125 -7.53125 C 13.582031 -7.9375 13.007812 -8.253906 12.3125 -8.484375 C 11.613281 -8.722656 10.664062 -8.988281 9.46875 -9.28125 C 7.789062 -9.6875 6.429688 -10.085938 5.390625 -10.484375 C 4.347656 -10.878906 3.453125 -11.503906 2.703125 -12.359375 C 1.953125 -13.210938 1.578125 -14.367188 1.578125 -15.828125 C 1.578125 -17.046875 1.90625 -18.15625 2.5625 -19.15625 C 3.226562 -20.15625 4.226562 -20.945312 5.5625 -21.53125 C 6.90625 -22.125 8.546875 -22.421875 10.484375 -22.421875 C 11.828125 -22.421875 13.148438 -22.25 14.453125 -21.90625 C 15.765625 -21.570312 16.894531 -21.09375 17.84375 -20.46875 L 16.546875 -17.265625 C 15.578125 -17.835938 14.566406 -18.269531 13.515625 -18.5625 C 12.460938 -18.863281 11.441406 -19.015625 10.453125 -19.015625 C 8.828125 -19.015625 7.617188 -18.738281 6.828125 -18.1875 C 6.046875 -17.644531 5.65625 -16.921875 5.65625 -16.015625 C 5.65625 -15.378906 5.878906 -14.859375 6.328125 -14.453125 C 6.785156 -14.054688 7.359375 -13.742188 8.046875 -13.515625 C 8.742188 -13.285156 9.691406 -13.019531 10.890625 -12.71875 C 12.535156 -12.34375 13.882812 -11.945312 14.9375 -11.53125 C 15.988281 -11.125 16.882812 -10.5 17.625 -9.65625 C 18.375 -8.820312 18.75 -7.6875 18.75 -6.25 C 18.75 -5.03125 18.414062 -3.925781 17.75 -2.9375 C 17.09375 -1.945312 16.085938 -1.15625 14.734375 -0.5625 C 13.390625 0.0195312 11.753906 0.3125 9.828125 0.3125 Z M 9.828125 0.3125 "/></g></g></g><g fill="#020227" fill-opacity="1"><g transform="translate(94.675668, 39.175401)"><g><path d="M 9.46875 -7.234375 L 6.53125 -4.453125 L 6.53125 0 L 2.59375 0 L 2.59375 -23.4375 L 6.53125 -23.4375 L 6.53125 -9.28125 L 14.71875 -16.859375 L 19.453125 -16.859375 L 12.40625 -9.796875 L 20.109375 0 L 15.3125 0 Z M 9.46875 -7.234375 "/></g></g></g><g fill="#020227" fill-opacity="1"><g transform="translate(114.75852, 39.175401)"><g><path d="M 18.375 -16.859375 L 10.484375 1.359375 C 9.742188 3.191406 8.847656 4.476562 7.796875 5.21875 C 6.742188 5.96875 5.472656 6.34375 3.984375 6.34375 C 3.140625 6.34375 2.304688 6.207031 1.484375 5.9375 C 0.660156 5.664062 -0.0078125 5.285156 -0.53125 4.796875 L 1.046875 1.890625 C 1.421875 2.253906 1.863281 2.539062 2.375 2.75 C 2.894531 2.957031 3.421875 3.0625 3.953125 3.0625 C 4.640625 3.0625 5.207031 2.878906 5.65625 2.515625 C 6.113281 2.160156 6.535156 1.5625 6.921875 0.71875 L 7.203125 0.0625 L -0.15625 -16.859375 L 3.953125 -16.859375 L 9.25 -4.390625 L 14.59375 -16.859375 Z M 18.375 -16.859375 "/></g></g></g><g fill="#020227" fill-opacity="1"><g transform="translate(133.009919, 39.175401)"><g><path d="M 12.15625 -17.046875 C 14.28125 -17.046875 15.984375 -16.425781 17.265625 -15.1875 C 18.554688 -13.945312 19.203125 -12.101562 19.203125 -9.65625 L 19.203125 0 L 15.25 0 L 15.25 -9.15625 C 15.25 -10.632812 14.898438 -11.742188 14.203125 -12.484375 C 13.515625 -13.234375 12.523438 -13.609375 11.234375 -13.609375 C 9.785156 -13.609375 8.640625 -13.171875 7.796875 -12.296875 C 6.953125 -11.421875 6.53125 -10.164062 6.53125 -8.53125 L 6.53125 0 L 2.59375 0 L 2.59375 -16.859375 L 6.34375 -16.859375 L 6.34375 -14.6875 C 7 -15.46875 7.820312 -16.054688 8.8125 -16.453125 C 9.800781 -16.847656 10.914062 -17.046875 12.15625 -17.046875 Z M 12.15625 -17.046875 "/></g></g></g><g fill="#020227" fill-opacity="1"><g transform="translate(154.64003, 39.175401)"><g><path d="M 10.171875 0.21875 C 8.460938 0.21875 6.921875 -0.144531 5.546875 -0.875 C 4.179688 -1.613281 3.113281 -2.640625 2.34375 -3.953125 C 1.582031 -5.273438 1.203125 -6.769531 1.203125 -8.4375 C 1.203125 -10.09375 1.582031 -11.570312 2.34375 -12.875 C 3.113281 -14.1875 4.179688 -15.207031 5.546875 -15.9375 C 6.921875 -16.675781 8.460938 -17.046875 10.171875 -17.046875 C 11.890625 -17.046875 13.429688 -16.675781 14.796875 -15.9375 C 16.171875 -15.207031 17.242188 -14.1875 18.015625 -12.875 C 18.785156 -11.570312 19.171875 -10.09375 19.171875 -8.4375 C 19.171875 -6.769531 18.785156 -5.273438 18.015625 -3.953125 C 17.242188 -2.640625 16.171875 -1.613281 14.796875 -0.875 C 13.429688 -0.144531 11.890625 0.21875 10.171875 0.21875 Z M 10.171875 -3.15625 C 11.617188 -3.15625 12.816406 -3.640625 13.765625 -4.609375 C 14.710938 -5.578125 15.1875 -6.851562 15.1875 -8.4375 C 15.1875 -10.007812 14.710938 -11.28125 13.765625 -12.25 C 12.816406 -13.21875 11.617188 -13.703125 10.171875 -13.703125 C 8.710938 -13.703125 7.515625 -13.21875 6.578125 -12.25 C 5.640625 -11.28125 5.171875 -10.007812 5.171875 -8.4375 C 5.171875 -6.851562 5.640625 -5.578125 6.578125 -4.609375 C 7.515625 -3.640625 8.710938 -3.15625 10.171875 -3.15625 Z M 10.171875 -3.15625 "/></g></g></g><g fill="#020227" fill-opacity="1"><g transform="translate(175.007068, 39.175401)"><g><path d="M 18.375 -16.859375 L 11.140625 0 L 7.078125 0 L -0.15625 -16.859375 L 3.953125 -16.859375 L 9.1875 -4.359375 L 14.59375 -16.859375 Z M 18.375 -16.859375 "/></g></g></g><g fill="#020227" fill-opacity="1"><g transform="translate(193.258467, 39.175401)"><g><path d="M 9.03125 -17.046875 C 11.507812 -17.046875 13.40625 -16.453125 14.71875 -15.265625 C 16.039062 -14.078125 16.703125 -12.285156 16.703125 -9.890625 L 16.703125 0 L 12.984375 0 L 12.984375 -2.046875 C 12.492188 -1.316406 11.800781 -0.753906 10.90625 -0.359375 C 10.007812 0.0234375 8.929688 0.21875 7.671875 0.21875 C 6.410156 0.21875 5.304688 0.00390625 4.359375 -0.421875 C 3.410156 -0.859375 2.675781 -1.457031 2.15625 -2.21875 C 1.644531 -2.988281 1.390625 -3.859375 1.390625 -4.828125 C 1.390625 -6.347656 1.953125 -7.566406 3.078125 -8.484375 C 4.203125 -9.398438 5.976562 -9.859375 8.40625 -9.859375 L 12.75 -9.859375 L 12.75 -10.109375 C 12.75 -11.285156 12.394531 -12.1875 11.6875 -12.8125 C 10.988281 -13.445312 9.945312 -13.765625 8.5625 -13.765625 C 7.613281 -13.765625 6.679688 -13.617188 5.765625 -13.328125 C 4.847656 -13.035156 4.070312 -12.625 3.4375 -12.09375 L 1.890625 -14.96875 C 2.773438 -15.644531 3.835938 -16.160156 5.078125 -16.515625 C 6.328125 -16.867188 7.644531 -17.046875 9.03125 -17.046875 Z M 8.5 -2.65625 C 9.488281 -2.65625 10.363281 -2.878906 11.125 -3.328125 C 11.894531 -3.785156 12.4375 -4.4375 12.75 -5.28125 L 12.75 -7.234375 L 8.6875 -7.234375 C 6.414062 -7.234375 5.28125 -6.484375 5.28125 -4.984375 C 5.28125 -4.273438 5.5625 -3.707031 6.125 -3.28125 C 6.695312 -2.863281 7.488281 -2.65625 8.5 -2.65625 Z M 8.5 -2.65625 "/></g></g></g></svg>